<?xml version="1.0" encoding="UTF-8"?>
<!--
  Gjoa logo — Lucide sailboat icon (https://lucide.dev/icons/sailboat),
  MIT licensed. Single-color line art, designed for UI use at 16-24px.
  Stroke is currentColor in source; rendered as #1e1e2e (gjoa dark slate)
  in PNG export via tools/icons/generate.ts.
-->
<svg
  xmlns="http://www.w3.org/2000/svg"
  width="24"
  height="24"
  viewBox="0 0 24 24"
  fill="none"
  stroke="#1e1e2e"
  stroke-width="2"
  stroke-linecap="round"
  stroke-linejoin="round"
>
  <path d="M10 2v15" />
  <path d="M7 22a4 4 0 0 1-4-4 1 1 0 0 1 1-1h16a1 1 0 0 1 1 1 4 4 0 0 1-4 4z" />
  <path d="M9.159 2.46a1 1 0 0 1 1.521-.193l9.977 8.98A1 1 0 0 1 20 13H4a1 1 0 0 1-.824-1.567z" />
</svg>
